<svg width="464.241" height="82.561" viewBox="0 0 464.241 82.561" xmlns="http://www.w3.org/2000/svg"><g id="svgGroup" stroke-linecap="round" fill-rule="evenodd" font-size="9pt" stroke="#000" stroke-width="0.25mm" fill="#000" style="stroke:#000;stroke-width:0.25mm;fill:#000"><path d="M 54.241 22.001 L 43.281 22.001 Q 41.121 17.601 37.281 15.441 Q 33.441 13.281 28.401 13.281 Q 22.881 13.281 18.561 15.761 Q 14.241 18.241 11.801 22.881 Q 9.361 27.521 9.361 33.681 Q 9.361 39.841 11.801 44.481 Q 14.241 49.121 18.561 51.641 Q 22.881 54.161 28.401 54.161 Q 33.441 54.161 37.281 52.001 Q 41.121 49.841 43.281 45.441 L 54.241 45.441 Q 51.121 53.441 44.201 57.761 Q 37.281 62.081 28.401 62.081 Q 20.561 62.081 14.081 58.441 Q 7.601 54.801 3.801 48.321 Q 0.001 41.841 0.001 33.681 Q 0.001 25.521 3.801 19.041 Q 7.601 12.561 14.121 8.921 Q 20.641 5.281 28.401 5.281 Q 37.281 5.281 44.201 9.641 Q 51.121 14.001 54.241 22.001 Z" id="0" vector-effect="non-scaling-stroke"/><path d="M 84.001 62.321 Q 77.761 62.321 72.721 59.481 Q 67.681 56.641 64.801 51.481 Q 61.921 46.321 61.921 39.521 Q 61.921 32.801 64.881 27.601 Q 67.841 22.401 72.961 19.601 Q 78.081 16.801 84.401 16.801 Q 90.721 16.801 95.841 19.601 Q 100.961 22.401 103.921 27.601 Q 106.881 32.801 106.881 39.521 Q 106.881 46.241 103.841 51.441 Q 100.801 56.641 95.561 59.481 Q 90.321 62.321 84.001 62.321 Z M 84.001 54.401 Q 87.521 54.401 90.601 52.721 Q 93.681 51.041 95.601 47.681 Q 97.521 44.321 97.521 39.521 Q 97.521 34.721 95.681 31.401 Q 93.841 28.081 90.801 26.401 Q 87.761 24.721 84.241 24.721 Q 80.721 24.721 77.721 26.401 Q 74.721 28.081 72.961 31.401 Q 71.201 34.721 71.201 39.521 Q 71.201 46.641 74.841 50.521 Q 78.481 54.401 84.001 54.401 Z" id="1" vector-effect="non-scaling-stroke"/><path d="M 115.921 17.521 L 125.041 17.521 L 125.041 61.601 L 115.921 61.601 L 115.921 17.521 Z M 120.561 11.681 Q 118.081 11.681 116.401 10.001 Q 114.721 8.321 114.721 5.841 Q 114.721 3.361 116.401 1.681 Q 118.081 0.001 120.561 0.001 Q 122.961 0.001 124.641 1.681 Q 126.321 3.361 126.321 5.841 Q 126.321 8.321 124.641 10.001 Q 122.961 11.681 120.561 11.681 Z" id="2" vector-effect="non-scaling-stroke"/><path d="M 177.361 35.601 L 177.361 61.601 L 168.321 61.601 L 168.321 36.961 Q 168.321 31.041 165.361 27.881 Q 162.401 24.721 157.281 24.721 Q 152.161 24.721 149.161 27.881 Q 146.161 31.041 146.161 36.961 L 146.161 61.601 L 137.041 61.601 L 137.041 17.521 L 146.161 17.521 L 146.161 22.561 Q 148.401 19.841 151.881 18.321 Q 155.361 16.801 159.281 16.801 Q 164.481 16.801 168.601 18.961 Q 172.721 21.121 175.041 25.361 Q 177.361 29.601 177.361 35.601 Z" id="3" vector-effect="non-scaling-stroke"/><path d="M 231.521 61.601 L 219.601 61.601 L 198.081 36.721 L 198.081 61.601 L 188.961 61.601 L 188.961 6.001 L 198.081 6.001 L 198.081 31.361 L 219.681 6.001 L 231.121 6.001 L 206.961 33.841 L 231.521 61.601 Z" id="4" vector-effect="non-scaling-stroke"/><path d="M 279.681 42.961 L 246.001 42.961 Q 246.401 48.241 249.921 51.441 Q 253.441 54.641 258.561 54.641 Q 265.921 54.641 268.961 48.481 L 278.801 48.481 Q 276.801 54.561 271.561 58.441 Q 266.321 62.321 258.561 62.321 Q 252.241 62.321 247.241 59.481 Q 242.241 56.641 239.401 51.481 Q 236.561 46.321 236.561 39.521 Q 236.561 32.721 239.321 27.561 Q 242.081 22.401 247.081 19.601 Q 252.081 16.801 258.561 16.801 Q 264.801 16.801 269.681 19.521 Q 274.561 22.241 277.281 27.161 Q 280.001 32.081 280.001 38.481 Q 280.001 40.961 279.681 42.961 Z M 246.081 35.601 L 270.481 35.601 Q 270.401 30.561 266.881 27.521 Q 263.361 24.481 258.161 24.481 Q 253.441 24.481 250.081 27.481 Q 246.721 30.481 246.081 35.601 Z" id="5" vector-effect="non-scaling-stroke"/><path d="M 329.041 42.961 L 295.361 42.961 Q 295.761 48.241 299.281 51.441 Q 302.801 54.641 307.921 54.641 Q 315.281 54.641 318.321 48.481 L 328.161 48.481 Q 326.161 54.561 320.921 58.441 Q 315.681 62.321 307.921 62.321 Q 301.601 62.321 296.601 59.481 Q 291.601 56.641 288.761 51.481 Q 285.921 46.321 285.921 39.521 Q 285.921 32.721 288.681 27.561 Q 291.441 22.401 296.441 19.601 Q 301.441 16.801 307.921 16.801 Q 314.161 16.801 319.041 19.521 Q 323.921 22.241 326.641 27.161 Q 329.361 32.081 329.361 38.481 Q 329.361 40.961 329.041 42.961 Z M 295.441 35.601 L 319.841 35.601 Q 319.761 30.561 316.241 27.521 Q 312.721 24.481 307.521 24.481 Q 302.801 24.481 299.441 27.481 Q 296.081 30.481 295.441 35.601 Z" id="6" vector-effect="non-scaling-stroke"/><path d="M 347.441 55.201 L 347.441 82.561 L 338.321 82.561 L 338.321 17.521 L 347.441 17.521 L 347.441 24.001 Q 349.761 20.961 353.761 18.881 Q 357.761 16.801 362.801 16.801 Q 368.561 16.801 373.321 19.641 Q 378.081 22.481 380.801 27.601 Q 383.521 32.721 383.521 39.361 Q 383.521 46.001 380.801 51.241 Q 378.081 56.481 373.321 59.401 Q 368.561 62.321 362.801 62.321 Q 357.761 62.321 353.841 60.281 Q 349.921 58.241 347.441 55.201 Z M 374.241 39.361 Q 374.241 34.801 372.361 31.481 Q 370.481 28.161 367.401 26.441 Q 364.321 24.721 360.801 24.721 Q 357.361 24.721 354.281 26.481 Q 351.201 28.241 349.321 31.601 Q 347.441 34.961 347.441 39.521 Q 347.441 44.081 349.321 47.481 Q 351.201 50.881 354.281 52.641 Q 357.361 54.401 360.801 54.401 Q 364.321 54.401 367.401 52.601 Q 370.481 50.801 372.361 47.361 Q 374.241 43.921 374.241 39.361 Z" id="7" vector-effect="non-scaling-stroke"/><path d="M 432.641 42.961 L 398.961 42.961 Q 399.361 48.241 402.881 51.441 Q 406.401 54.641 411.521 54.641 Q 418.881 54.641 421.921 48.481 L 431.761 48.481 Q 429.761 54.561 424.521 58.441 Q 419.281 62.321 411.521 62.321 Q 405.201 62.321 400.201 59.481 Q 395.201 56.641 392.361 51.481 Q 389.521 46.321 389.521 39.521 Q 389.521 32.721 392.281 27.561 Q 395.041 22.401 400.041 19.601 Q 405.041 16.801 411.521 16.801 Q 417.761 16.801 422.641 19.521 Q 427.521 22.241 430.241 27.161 Q 432.961 32.081 432.961 38.481 Q 432.961 40.961 432.641 42.961 Z M 399.041 35.601 L 423.441 35.601 Q 423.361 30.561 419.841 27.521 Q 416.321 24.481 411.121 24.481 Q 406.401 24.481 403.041 27.481 Q 399.681 30.481 399.041 35.601 Z" id="8" vector-effect="non-scaling-stroke"/><path d="M 464.241 16.801 L 464.241 26.241 L 461.921 26.241 Q 456.561 26.241 453.801 28.961 Q 451.041 31.681 451.041 38.401 L 451.041 61.601 L 441.921 61.601 L 441.921 17.521 L 451.041 17.521 L 451.041 23.921 Q 453.041 20.561 456.361 18.681 Q 459.681 16.801 464.241 16.801 Z" id="9" vector-effect="non-scaling-stroke"/></g></svg>