<?xml version="1.0" encoding="utf-8"?>
<svg xmlns="http://www.w3.org/2000/svg" viewBox="-173.19 3.27 951.697 474.979" width="951.697px" height="474.979px"><defs><radialGradient id="grad1" cx="50%" cy="50%" r="50%"><stop offset="0" style="stop-color:hsl(var(--secondary));stop-opacity:1"/><stop offset="1" style="stop-color:hsl(var(--background));stop-opacity:1"/></radialGradient></defs><g id="object-0" transform="matrix(1, 0, 0, 1, 5.684341886080802e-14, 0)"><rect width="951.697" height="474.979" fill="url(#grad1)" x="-173.19" y="3.27" style="stroke-width: 1;"/><g transform="matrix(1, 0, 0, 1, 15.746185, 225.988098)"><g transform="matrix(6.258972, 0, 0, 6.258972, -82.266998, -71.697365)" style=""><circle cx="12" cy="12" r="10" stroke="#2D6373" stroke-width="1.5" fill="none"/><path d="M16 8h-6a2 2 0 1 0 0 4h4a2 2 0 1 1 0 4H8" stroke="#2D6373" stroke-width="1.5" fill="none"/><path d="M12 18V6" stroke="#2D6373" stroke-width="1.5" fill="none"/></g><g transform="translate(90, 0)"><text y="15" font-family="Poppins, sans-serif" font-size="96" font-weight="bold" fill="#2D6373" text-anchor="start" style="white-space: pre;">CoinKeeper</text><text y="70.961" font-family="PT Sans, sans-serif" font-size="36" fill="#4A5568" text-anchor="start" style="white-space: pre; font-size: 31.1px;" transform="matrix(1.013193, 0, 0, 1, 12.331242, -1.761606)">Manage Your Finances, Entirely Yours.</text></g></g></g></svg>